<?xml version="1.0" encoding="UTF-8" standalone="no"?>
<!DOCTYPE svg PUBLIC "-//W3C//DTD SVG 1.1//EN"
 "http://www.w3.org/Graphics/SVG/1.1/DTD/svg11.dtd">
<!-- Generated by graphviz version 2.47.0 (20210316.0004)
 -->
<!-- Title: dependencies Pages: 1 -->
<svg width="504pt" height="284pt"
 viewBox="0.00 0.00 504.00 284.00" xmlns="http://www.w3.org/2000/svg" xmlns:xlink="http://www.w3.org/1999/xlink">
<g id="graph0" class="graph" transform="scale(1 1) rotate(0) translate(4 280)">
<title>dependencies</title>
<polygon fill="white" stroke="transparent" points="-4,4 -4,-280 500,-280 500,4 -4,4"/>
<text text-anchor="start" x="227.01" y="-42.4" font-family="Times-12" font-weight="bold" font-size="14.00">Legend</text>
<polygon fill="#ffffb3" stroke="transparent" points="14,-10 14,-30 34,-30 34,-10 14,-10"/>
<text text-anchor="start" x="37.63" y="-15.4" font-family="Times-12" font-size="14.00"> &#160;Declarations</text>
<polygon fill="#8dd3c7" stroke="transparent" points="127,-10 127,-30 147,-30 147,-10 127,-10"/>
<text text-anchor="start" x="150.73" y="-15.4" font-family="Times-12" font-size="14.00"> &#160;Module</text>
<polygon fill="#80b1d3" stroke="transparent" points="213,-10 213,-30 233,-30 233,-10 213,-10"/>
<text text-anchor="start" x="236.78" y="-15.4" font-family="Times-12" font-size="14.00"> &#160;Bootstrap</text>
<polygon fill="#fdb462" stroke="transparent" points="310,-10 310,-30 330,-30 330,-10 310,-10"/>
<text text-anchor="start" x="333.67" y="-15.4" font-family="Times-12" font-size="14.00"> &#160;Providers</text>
<polygon fill="#fb8072" stroke="transparent" points="406,-10 406,-30 426,-30 426,-10 406,-10"/>
<text text-anchor="start" x="429.73" y="-15.4" font-family="Times-12" font-size="14.00"> &#160;Exports</text>
<g id="clust1" class="cluster">
<title>cluster_SharedModule</title>
<polygon fill="none" stroke="black" stroke-dasharray="1,5" points="45,-70 45,-268 451,-268 451,-70 45,-70"/>
</g>
<g id="clust2" class="cluster">
<title>cluster_SharedModule_declarations</title>
<polygon fill="none" stroke="black" points="58,-78 58,-130 438,-130 438,-78 58,-78"/>
</g>
<g id="clust7" class="cluster">
<title>cluster_SharedModule_exports</title>
<polygon fill="none" stroke="black" points="53,-208 53,-260 443,-260 443,-208 53,-208"/>
</g>
<!-- AuthDirective -->
<g id="node1" class="node">
<title>AuthDirective</title>
<polygon fill="#ffffb3" stroke="black" points="430.08,-122 333.92,-122 333.92,-86 430.08,-86 430.08,-122"/>
<text text-anchor="middle" x="382" y="-99.8" font-family="Times,serif" font-size="14.00">AuthDirective</text>
</g>
<!-- SharedModule -->
<g id="node4" class="node">
<title>SharedModule</title>
<polygon fill="#8dd3c7" stroke="black" points="305.42,-187 302.42,-191 281.42,-191 278.42,-187 206.58,-187 206.58,-151 305.42,-151 305.42,-187"/>
<text text-anchor="middle" x="256" y="-164.8" font-family="Times,serif" font-size="14.00">SharedModule</text>
</g>
<!-- AuthDirective&#45;&gt;SharedModule -->
<g id="edge1" class="edge">
<title>AuthDirective&#45;&gt;SharedModule</title>
<path fill="none" stroke="black" d="M398.43,-122.02C398.43,-139.37 398.43,-163 398.43,-163 398.43,-163 315.42,-163 315.42,-163"/>
<polygon fill="black" stroke="black" points="315.42,-159.5 305.42,-163 315.42,-166.5 315.42,-159.5"/>
</g>
<!-- SafeLinkDirective -->
<g id="node2" class="node">
<title>SafeLinkDirective</title>
<polygon fill="#ffffb3" stroke="black" points="315.9,-122 196.1,-122 196.1,-86 315.9,-86 315.9,-122"/>
<text text-anchor="middle" x="256" y="-99.8" font-family="Times,serif" font-size="14.00">SafeLinkDirective</text>
</g>
<!-- SafeLinkDirective&#45;&gt;SharedModule -->
<g id="edge2" class="edge">
<title>SafeLinkDirective&#45;&gt;SharedModule</title>
<path fill="none" stroke="black" d="M256,-122.11C256,-122.11 256,-140.99 256,-140.99"/>
<polygon fill="black" stroke="black" points="252.5,-140.99 256,-150.99 259.5,-140.99 252.5,-140.99"/>
</g>
<!-- TemperaturePipe -->
<g id="node3" class="node">
<title>TemperaturePipe</title>
<polygon fill="#ffffb3" stroke="black" points="178.4,-122 65.6,-122 65.6,-86 178.4,-86 178.4,-122"/>
<text text-anchor="middle" x="122" y="-99.8" font-family="Times,serif" font-size="14.00">TemperaturePipe</text>
</g>
<!-- TemperaturePipe&#45;&gt;SharedModule -->
<g id="edge3" class="edge">
<title>TemperaturePipe&#45;&gt;SharedModule</title>
<path fill="none" stroke="black" d="M139.9,-122.02C139.9,-139.37 139.9,-163 139.9,-163 139.9,-163 196.76,-163 196.76,-163"/>
<polygon fill="black" stroke="black" points="196.76,-166.5 206.76,-163 196.76,-159.5 196.76,-166.5"/>
</g>
<!-- AuthDirective  -->
<g id="node5" class="node">
<title>AuthDirective </title>
<polygon fill="#fb8072" stroke="black" points="434.58,-252 335.42,-252 335.42,-216 434.58,-216 434.58,-252"/>
<text text-anchor="middle" x="385" y="-229.8" font-family="Times,serif" font-size="14.00">AuthDirective </text>
</g>
<!-- SharedModule&#45;&gt;AuthDirective  -->
<g id="edge4" class="edge">
<title>SharedModule&#45;&gt;AuthDirective </title>
<path fill="none" stroke="black" stroke-dasharray="5,2" d="M305.25,-175C334.85,-175 366.82,-175 366.82,-175 366.82,-175 366.82,-205.98 366.82,-205.98"/>
<polygon fill="black" stroke="black" points="363.32,-205.98 366.82,-215.98 370.32,-205.98 363.32,-205.98"/>
</g>
<!-- SafeLinkDirective  -->
<g id="node6" class="node">
<title>SafeLinkDirective </title>
<polygon fill="#fb8072" stroke="black" points="317.4,-252 194.6,-252 194.6,-216 317.4,-216 317.4,-252"/>
<text text-anchor="middle" x="256" y="-229.8" font-family="Times,serif" font-size="14.00">SafeLinkDirective </text>
</g>
<!-- SharedModule&#45;&gt;SafeLinkDirective  -->
<g id="edge5" class="edge">
<title>SharedModule&#45;&gt;SafeLinkDirective </title>
<path fill="none" stroke="black" stroke-dasharray="5,2" d="M256,-187.11C256,-187.11 256,-205.99 256,-205.99"/>
<polygon fill="black" stroke="black" points="252.5,-205.99 256,-215.99 259.5,-205.99 252.5,-205.99"/>
</g>
<!-- TemperaturePipe  -->
<g id="node7" class="node">
<title>TemperaturePipe </title>
<polygon fill="#fb8072" stroke="black" points="176.9,-252 61.1,-252 61.1,-216 176.9,-216 176.9,-252"/>
<text text-anchor="middle" x="119" y="-229.8" font-family="Times,serif" font-size="14.00">TemperaturePipe </text>
</g>
<!-- SharedModule&#45;&gt;TemperaturePipe  -->
<g id="edge6" class="edge">
<title>SharedModule&#45;&gt;TemperaturePipe </title>
<path fill="none" stroke="black" stroke-dasharray="5,2" d="M206.7,-175C161.93,-175 102.85,-175 102.85,-175 102.85,-175 102.85,-205.98 102.85,-205.98"/>
<polygon fill="black" stroke="black" points="99.35,-205.98 102.85,-215.98 106.35,-205.98 99.35,-205.98"/>
</g>
</g>
</svg>
