<?xml version="1.0" encoding="UTF-8" standalone="no"?>
<!DOCTYPE svg PUBLIC "-//W3C//DTD SVG 1.1//EN"
 "http://www.w3.org/Graphics/SVG/1.1/DTD/svg11.dtd">
<!-- Generated by graphviz version 2.47.0 (20210316.0004)
 -->
<!-- Title: dependencies Pages: 1 -->
<svg width="2660pt" height="284pt"
 viewBox="0.00 0.00 2660.00 284.00" xmlns="http://www.w3.org/2000/svg" xmlns:xlink="http://www.w3.org/1999/xlink">
<g id="graph0" class="graph" transform="scale(1 1) rotate(0) translate(4 280)">
<title>dependencies</title>
<polygon fill="white" stroke="transparent" points="-4,4 -4,-280 2656,-280 2656,4 -4,4"/>
<text text-anchor="start" x="1305.01" y="-42.4" font-family="Times-12" font-weight="bold" font-size="14.00">Legend</text>
<polygon fill="#ffffb3" stroke="transparent" points="1092,-10 1092,-30 1112,-30 1112,-10 1092,-10"/>
<text text-anchor="start" x="1115.63" y="-15.4" font-family="Times-12" font-size="14.00"> &#160;Declarations</text>
<polygon fill="#8dd3c7" stroke="transparent" points="1205,-10 1205,-30 1225,-30 1225,-10 1205,-10"/>
<text text-anchor="start" x="1228.73" y="-15.4" font-family="Times-12" font-size="14.00"> &#160;Module</text>
<polygon fill="#80b1d3" stroke="transparent" points="1291,-10 1291,-30 1311,-30 1311,-10 1291,-10"/>
<text text-anchor="start" x="1314.78" y="-15.4" font-family="Times-12" font-size="14.00"> &#160;Bootstrap</text>
<polygon fill="#fdb462" stroke="transparent" points="1388,-10 1388,-30 1408,-30 1408,-10 1388,-10"/>
<text text-anchor="start" x="1411.67" y="-15.4" font-family="Times-12" font-size="14.00"> &#160;Providers</text>
<polygon fill="#fb8072" stroke="transparent" points="1484,-10 1484,-30 1504,-30 1504,-10 1484,-10"/>
<text text-anchor="start" x="1507.73" y="-15.4" font-family="Times-12" font-size="14.00"> &#160;Exports</text>
<g id="clust1" class="cluster">
<title>cluster_ComponentsModule</title>
<polygon fill="none" stroke="black" stroke-dasharray="1,5" points="8,-70 8,-268 2644,-268 2644,-70 8,-70"/>
</g>
<g id="clust2" class="cluster">
<title>cluster_ComponentsModule_declarations</title>
<polygon fill="none" stroke="black" points="138,-78 138,-130 2636,-130 2636,-78 138,-78"/>
</g>
<g id="clust19" class="cluster">
<title>cluster_ComponentsModule_imports</title>
<polygon fill="none" stroke="black" points="16,-78 16,-130 130,-130 130,-78 16,-78"/>
</g>
<g id="clust20" class="cluster">
<title>cluster_ComponentsModule_exports</title>
<polygon fill="none" stroke="black" points="205,-208 205,-260 2444,-260 2444,-208 205,-208"/>
</g>
<!-- AvailablePlacesComponent -->
<g id="node1" class="node">
<title>AvailablePlacesComponent</title>
<polygon fill="#ffffb3" stroke="black" points="2627.52,-122 2456.48,-122 2456.48,-86 2627.52,-86 2627.52,-122"/>
<text text-anchor="middle" x="2542" y="-99.8" font-family="Times,serif" font-size="14.00">AvailablePlacesComponent</text>
</g>
<!-- ComponentsModule -->
<g id="node17" class="node">
<title>ComponentsModule</title>
<polygon fill="#8dd3c7" stroke="black" points="1377.33,-187 1374.33,-191 1353.33,-191 1350.33,-187 1246.67,-187 1246.67,-151 1377.33,-151 1377.33,-187"/>
<text text-anchor="middle" x="1312" y="-164.8" font-family="Times,serif" font-size="14.00">ComponentsModule</text>
</g>
<!-- AvailablePlacesComponent&#45;&gt;ComponentsModule -->
<g id="edge1" class="edge">
<title>AvailablePlacesComponent&#45;&gt;ComponentsModule</title>
<path fill="none" stroke="black" d="M2542,-122.31C2542,-142.15 2542,-171 2542,-171 2542,-171 1387.26,-171 1387.26,-171"/>
<polygon fill="black" stroke="black" points="1387.26,-167.5 1377.26,-171 1387.26,-174.5 1387.26,-167.5"/>
</g>
<!-- CardComponent -->
<g id="node2" class="node">
<title>CardComponent</title>
<polygon fill="#ffffb3" stroke="black" points="2438.05,-122 2329.95,-122 2329.95,-86 2438.05,-86 2438.05,-122"/>
<text text-anchor="middle" x="2384" y="-99.8" font-family="Times,serif" font-size="14.00">CardComponent</text>
</g>
<!-- CardComponent&#45;&gt;ComponentsModule -->
<g id="edge2" class="edge">
<title>CardComponent&#45;&gt;ComponentsModule</title>
<path fill="none" stroke="black" d="M2382.62,-122.17C2382.62,-141.09 2382.62,-168 2382.62,-168 2382.62,-168 1387.36,-168 1387.36,-168"/>
<polygon fill="black" stroke="black" points="1387.36,-164.5 1377.36,-168 1387.36,-171.5 1387.36,-164.5"/>
</g>
<!-- ErrorModalComponent -->
<g id="node3" class="node">
<title>ErrorModalComponent</title>
<polygon fill="#ffffb3" stroke="black" points="2311.92,-122 2164.08,-122 2164.08,-86 2311.92,-86 2311.92,-122"/>
<text text-anchor="middle" x="2238" y="-99.8" font-family="Times,serif" font-size="14.00">ErrorModalComponent</text>
</g>
<!-- ErrorModalComponent&#45;&gt;ComponentsModule -->
<g id="edge3" class="edge">
<title>ErrorModalComponent&#45;&gt;ComponentsModule</title>
<path fill="none" stroke="black" d="M2203.16,-122.27C2203.16,-140.56 2203.16,-166 2203.16,-166 2203.16,-166 1387.17,-166 1387.17,-166"/>
<polygon fill="black" stroke="black" points="1387.17,-162.5 1377.17,-166 1387.17,-169.5 1387.17,-162.5"/>
</g>
<!-- FavoritePlacesComponent -->
<g id="node4" class="node">
<title>FavoritePlacesComponent</title>
<polygon fill="#ffffb3" stroke="black" points="2145.75,-122 1982.25,-122 1982.25,-86 2145.75,-86 2145.75,-122"/>
<text text-anchor="middle" x="2064" y="-99.8" font-family="Times,serif" font-size="14.00">FavoritePlacesComponent</text>
</g>
<!-- FavoritePlacesComponent&#45;&gt;ComponentsModule -->
<g id="edge4" class="edge">
<title>FavoritePlacesComponent&#45;&gt;ComponentsModule</title>
<path fill="none" stroke="black" d="M2047.29,-122.02C2047.29,-139.37 2047.29,-163 2047.29,-163 2047.29,-163 1387.25,-163 1387.25,-163"/>
<polygon fill="black" stroke="black" points="1387.25,-159.5 1377.25,-163 1387.25,-166.5 1387.25,-159.5"/>
</g>
<!-- HeaderComponent -->
<g id="node5" class="node">
<title>HeaderComponent</title>
<polygon fill="#ffffb3" stroke="black" points="1963.74,-122 1842.26,-122 1842.26,-86 1963.74,-86 1963.74,-122"/>
<text text-anchor="middle" x="1903" y="-99.8" font-family="Times,serif" font-size="14.00">HeaderComponent</text>
</g>
<!-- HeaderComponent&#45;&gt;ComponentsModule -->
<g id="edge5" class="edge">
<title>HeaderComponent&#45;&gt;ComponentsModule</title>
<path fill="none" stroke="black" d="M1892.88,-122.04C1892.88,-138.73 1892.88,-161 1892.88,-161 1892.88,-161 1387.22,-161 1387.22,-161"/>
<polygon fill="black" stroke="black" points="1387.22,-157.5 1377.22,-161 1387.22,-164.5 1387.22,-157.5"/>
</g>
<!-- LessonComponent -->
<g id="node6" class="node">
<title>LessonComponent</title>
<polygon fill="#ffffb3" stroke="black" points="1824.49,-122 1703.51,-122 1703.51,-86 1824.49,-86 1824.49,-122"/>
<text text-anchor="middle" x="1764" y="-99.8" font-family="Times,serif" font-size="14.00">LessonComponent</text>
</g>
<!-- LessonComponent&#45;&gt;ComponentsModule -->
<g id="edge6" class="edge">
<title>LessonComponent&#45;&gt;ComponentsModule</title>
<path fill="none" stroke="black" d="M1731.06,-122.01C1731.06,-138.05 1731.06,-159 1731.06,-159 1731.06,-159 1387.48,-159 1387.48,-159"/>
<polygon fill="black" stroke="black" points="1387.48,-155.5 1377.48,-159 1387.48,-162.5 1387.48,-155.5"/>
</g>
<!-- ModalComponent -->
<g id="node7" class="node">
<title>ModalComponent</title>
<polygon fill="#ffffb3" stroke="black" points="1685.88,-122 1568.12,-122 1568.12,-86 1685.88,-86 1685.88,-122"/>
<text text-anchor="middle" x="1627" y="-99.8" font-family="Times,serif" font-size="14.00">ModalComponent</text>
</g>
<!-- ModalComponent&#45;&gt;ComponentsModule -->
<g id="edge7" class="edge">
<title>ModalComponent&#45;&gt;ComponentsModule</title>
<path fill="none" stroke="black" d="M1591.65,-122.19C1591.65,-137.18 1591.65,-156 1591.65,-156 1591.65,-156 1387.21,-156 1387.21,-156"/>
<polygon fill="black" stroke="black" points="1387.21,-152.5 1377.21,-156 1387.21,-159.5 1387.21,-152.5"/>
</g>
<!-- NewRequestComponent -->
<g id="node8" class="node">
<title>NewRequestComponent</title>
<polygon fill="#ffffb3" stroke="black" points="1550.36,-122 1397.64,-122 1397.64,-86 1550.36,-86 1550.36,-122"/>
<text text-anchor="middle" x="1474" y="-99.8" font-family="Times,serif" font-size="14.00">NewRequestComponent</text>
</g>
<!-- NewRequestComponent&#45;&gt;ComponentsModule -->
<g id="edge8" class="edge">
<title>NewRequestComponent&#45;&gt;ComponentsModule</title>
<path fill="none" stroke="black" d="M1435.38,-122.05C1435.38,-136.37 1435.38,-154 1435.38,-154 1435.38,-154 1387.3,-154 1387.3,-154"/>
<polygon fill="black" stroke="black" points="1387.3,-150.5 1377.3,-154 1387.3,-157.5 1387.3,-150.5"/>
</g>
<!-- NewTaskComponent -->
<g id="node9" class="node">
<title>NewTaskComponent</title>
<polygon fill="#ffffb3" stroke="black" points="1379.47,-122 1244.53,-122 1244.53,-86 1379.47,-86 1379.47,-122"/>
<text text-anchor="middle" x="1312" y="-99.8" font-family="Times,serif" font-size="14.00">NewTaskComponent</text>
</g>
<!-- NewTaskComponent&#45;&gt;ComponentsModule -->
<g id="edge9" class="edge">
<title>NewTaskComponent&#45;&gt;ComponentsModule</title>
<path fill="none" stroke="black" d="M1312,-122.11C1312,-122.11 1312,-140.99 1312,-140.99"/>
<polygon fill="black" stroke="black" points="1308.5,-140.99 1312,-150.99 1315.5,-140.99 1308.5,-140.99"/>
</g>
<!-- NotFoundComponent -->
<g id="node10" class="node">
<title>NotFoundComponent</title>
<polygon fill="#ffffb3" stroke="black" points="1226.11,-122 1087.89,-122 1087.89,-86 1226.11,-86 1226.11,-122"/>
<text text-anchor="middle" x="1157" y="-99.8" font-family="Times,serif" font-size="14.00">NotFoundComponent</text>
</g>
<!-- NotFoundComponent&#45;&gt;ComponentsModule -->
<g id="edge10" class="edge">
<title>NotFoundComponent&#45;&gt;ComponentsModule</title>
<path fill="none" stroke="black" d="M1193.41,-122.05C1193.41,-136.37 1193.41,-154 1193.41,-154 1193.41,-154 1236.81,-154 1236.81,-154"/>
<polygon fill="black" stroke="black" points="1236.81,-157.5 1246.81,-154 1236.81,-150.5 1236.81,-157.5"/>
</g>
<!-- PlacesComponent -->
<g id="node11" class="node">
<title>PlacesComponent</title>
<polygon fill="#ffffb3" stroke="black" points="1069.59,-122 952.41,-122 952.41,-86 1069.59,-86 1069.59,-122"/>
<text text-anchor="middle" x="1011" y="-99.8" font-family="Times,serif" font-size="14.00">PlacesComponent</text>
</g>
<!-- PlacesComponent&#45;&gt;ComponentsModule -->
<g id="edge11" class="edge">
<title>PlacesComponent&#45;&gt;ComponentsModule</title>
<path fill="none" stroke="black" d="M1035.37,-122.19C1035.37,-137.18 1035.37,-156 1035.37,-156 1035.37,-156 1236.79,-156 1236.79,-156"/>
<polygon fill="black" stroke="black" points="1236.79,-159.5 1246.79,-156 1236.79,-152.5 1236.79,-159.5"/>
</g>
<!-- PlacesContainerComponent -->
<g id="node12" class="node">
<title>PlacesContainerComponent</title>
<polygon fill="#ffffb3" stroke="black" points="934.3,-122 761.7,-122 761.7,-86 934.3,-86 934.3,-122"/>
<text text-anchor="middle" x="848" y="-99.8" font-family="Times,serif" font-size="14.00">PlacesContainerComponent</text>
</g>
<!-- PlacesContainerComponent&#45;&gt;ComponentsModule -->
<g id="edge12" class="edge">
<title>PlacesContainerComponent&#45;&gt;ComponentsModule</title>
<path fill="none" stroke="black" d="M898.43,-122.01C898.43,-138.05 898.43,-159 898.43,-159 898.43,-159 1236.47,-159 1236.47,-159"/>
<polygon fill="black" stroke="black" points="1236.47,-162.5 1246.47,-159 1236.47,-155.5 1236.47,-162.5"/>
</g>
<!-- SimpleFormComponent -->
<g id="node13" class="node">
<title>SimpleFormComponent</title>
<polygon fill="#ffffb3" stroke="black" points="743.84,-122 592.16,-122 592.16,-86 743.84,-86 743.84,-122"/>
<text text-anchor="middle" x="668" y="-99.8" font-family="Times,serif" font-size="14.00">SimpleFormComponent</text>
</g>
<!-- SimpleFormComponent&#45;&gt;ComponentsModule -->
<g id="edge13" class="edge">
<title>SimpleFormComponent&#45;&gt;ComponentsModule</title>
<path fill="none" stroke="black" d="M706.38,-122.04C706.38,-138.73 706.38,-161 706.38,-161 706.38,-161 1236.61,-161 1236.61,-161"/>
<polygon fill="black" stroke="black" points="1236.61,-164.5 1246.61,-161 1236.61,-157.5 1236.61,-164.5"/>
</g>
<!-- TaskComponent -->
<g id="node14" class="node">
<title>TaskComponent</title>
<polygon fill="#ffffb3" stroke="black" points="574.05,-122 465.95,-122 465.95,-86 574.05,-86 574.05,-122"/>
<text text-anchor="middle" x="520" y="-99.8" font-family="Times,serif" font-size="14.00">TaskComponent</text>
</g>
<!-- TaskComponent&#45;&gt;ComponentsModule -->
<g id="edge14" class="edge">
<title>TaskComponent&#45;&gt;ComponentsModule</title>
<path fill="none" stroke="black" d="M556.62,-122.02C556.62,-139.37 556.62,-163 556.62,-163 556.62,-163 1236.62,-163 1236.62,-163"/>
<polygon fill="black" stroke="black" points="1236.62,-166.5 1246.62,-163 1236.62,-159.5 1236.62,-166.5"/>
</g>
<!-- TasksComponent -->
<g id="node15" class="node">
<title>TasksComponent</title>
<polygon fill="#ffffb3" stroke="black" points="447.99,-122 334.01,-122 334.01,-86 447.99,-86 447.99,-122"/>
<text text-anchor="middle" x="391" y="-99.8" font-family="Times,serif" font-size="14.00">TasksComponent</text>
</g>
<!-- TasksComponent&#45;&gt;ComponentsModule -->
<g id="edge15" class="edge">
<title>TasksComponent&#45;&gt;ComponentsModule</title>
<path fill="none" stroke="black" d="M425.62,-122.27C425.62,-140.56 425.62,-166 425.62,-166 425.62,-166 1236.82,-166 1236.82,-166"/>
<polygon fill="black" stroke="black" points="1236.82,-169.5 1246.82,-166 1236.82,-162.5 1236.82,-169.5"/>
</g>
<!-- TasksContainerComponent -->
<g id="node16" class="node">
<title>TasksContainerComponent</title>
<polygon fill="#ffffb3" stroke="black" points="315.7,-122 146.3,-122 146.3,-86 315.7,-86 315.7,-122"/>
<text text-anchor="middle" x="231" y="-99.8" font-family="Times,serif" font-size="14.00">TasksContainerComponent</text>
</g>
<!-- TasksContainerComponent&#45;&gt;ComponentsModule -->
<g id="edge16" class="edge">
<title>TasksContainerComponent&#45;&gt;ComponentsModule</title>
<path fill="none" stroke="black" d="M264.12,-122.17C264.12,-141.09 264.12,-168 264.12,-168 264.12,-168 1236.45,-168 1236.45,-168"/>
<polygon fill="black" stroke="black" points="1236.45,-171.5 1246.45,-168 1236.45,-164.5 1236.45,-171.5"/>
</g>
<!-- AvailablePlacesComponent  -->
<g id="node19" class="node">
<title>AvailablePlacesComponent </title>
<polygon fill="#fb8072" stroke="black" points="2435.52,-252 2260.48,-252 2260.48,-216 2435.52,-216 2435.52,-252"/>
<text text-anchor="middle" x="2348" y="-229.8" font-family="Times,serif" font-size="14.00">AvailablePlacesComponent </text>
</g>
<!-- ComponentsModule&#45;&gt;AvailablePlacesComponent  -->
<g id="edge18" class="edge">
<title>ComponentsModule&#45;&gt;AvailablePlacesComponent </title>
<path fill="none" stroke="black" stroke-dasharray="5,2" d="M1377.43,-173C1595.83,-173 2286.1,-173 2286.1,-173 2286.1,-173 2286.1,-205.7 2286.1,-205.7"/>
<polygon fill="black" stroke="black" points="2282.6,-205.7 2286.1,-215.7 2289.6,-205.7 2282.6,-205.7"/>
</g>
<!-- CardComponent  -->
<g id="node20" class="node">
<title>CardComponent </title>
<polygon fill="#fb8072" stroke="black" points="2242.04,-252 2129.96,-252 2129.96,-216 2242.04,-216 2242.04,-252"/>
<text text-anchor="middle" x="2186" y="-229.8" font-family="Times,serif" font-size="14.00">CardComponent </text>
</g>
<!-- ComponentsModule&#45;&gt;CardComponent  -->
<g id="edge19" class="edge">
<title>ComponentsModule&#45;&gt;CardComponent </title>
<path fill="none" stroke="black" stroke-dasharray="5,2" d="M1377.5,-175C1572.85,-175 2137.93,-175 2137.93,-175 2137.93,-175 2137.93,-205.98 2137.93,-205.98"/>
<polygon fill="black" stroke="black" points="2134.43,-205.98 2137.93,-215.98 2141.43,-205.98 2134.43,-205.98"/>
</g>
<!-- ErrorModalComponent  -->
<g id="node21" class="node">
<title>ErrorModalComponent </title>
<polygon fill="#fb8072" stroke="black" points="2112.42,-252 1961.58,-252 1961.58,-216 2112.42,-216 2112.42,-252"/>
<text text-anchor="middle" x="2037" y="-229.8" font-family="Times,serif" font-size="14.00">ErrorModalComponent </text>
</g>
<!-- ComponentsModule&#45;&gt;ErrorModalComponent  -->
<g id="edge20" class="edge">
<title>ComponentsModule&#45;&gt;ErrorModalComponent </title>
<path fill="none" stroke="black" stroke-dasharray="5,2" d="M1377.19,-178C1543.95,-178 1973,-178 1973,-178 1973,-178 1973,-205.97 1973,-205.97"/>
<polygon fill="black" stroke="black" points="1969.5,-205.97 1973,-215.97 1976.5,-205.97 1969.5,-205.97"/>
</g>
<!-- FavoritePlacesComponent  -->
<g id="node22" class="node">
<title>FavoritePlacesComponent </title>
<polygon fill="#fb8072" stroke="black" points="1943.75,-252 1776.25,-252 1776.25,-216 1943.75,-216 1943.75,-252"/>
<text text-anchor="middle" x="1860" y="-229.8" font-family="Times,serif" font-size="14.00">FavoritePlacesComponent </text>
</g>
<!-- ComponentsModule&#45;&gt;FavoritePlacesComponent  -->
<g id="edge21" class="edge">
<title>ComponentsModule&#45;&gt;FavoritePlacesComponent </title>
<path fill="none" stroke="black" stroke-dasharray="5,2" d="M1377.37,-180C1510.46,-180 1800.44,-180 1800.44,-180 1800.44,-180 1800.44,-205.72 1800.44,-205.72"/>
<polygon fill="black" stroke="black" points="1796.94,-205.72 1800.44,-215.72 1803.94,-205.72 1796.94,-205.72"/>
</g>
<!-- HeaderComponent  -->
<g id="node23" class="node">
<title>HeaderComponent </title>
<polygon fill="#fb8072" stroke="black" points="1758.74,-252 1633.26,-252 1633.26,-216 1758.74,-216 1758.74,-252"/>
<text text-anchor="middle" x="1696" y="-229.8" font-family="Times,serif" font-size="14.00">HeaderComponent </text>
</g>
<!-- ComponentsModule&#45;&gt;HeaderComponent  -->
<g id="edge22" class="edge">
<title>ComponentsModule&#45;&gt;HeaderComponent </title>
<path fill="none" stroke="black" stroke-dasharray="5,2" d="M1377.39,-183C1478.1,-183 1659.66,-183 1659.66,-183 1659.66,-183 1659.66,-205.88 1659.66,-205.88"/>
<polygon fill="black" stroke="black" points="1656.16,-205.88 1659.66,-215.88 1663.16,-205.88 1656.16,-205.88"/>
</g>
<!-- LessonComponent  -->
<g id="node24" class="node">
<title>LessonComponent </title>
<polygon fill="#fb8072" stroke="black" points="1615.49,-252 1490.51,-252 1490.51,-216 1615.49,-216 1615.49,-252"/>
<text text-anchor="middle" x="1553" y="-229.8" font-family="Times,serif" font-size="14.00">LessonComponent </text>
</g>
<!-- ComponentsModule&#45;&gt;LessonComponent  -->
<g id="edge23" class="edge">
<title>ComponentsModule&#45;&gt;LessonComponent </title>
<path fill="none" stroke="black" stroke-dasharray="5,2" d="M1377.43,-185C1438.6,-185 1520.59,-185 1520.59,-185 1520.59,-185 1520.59,-205.75 1520.59,-205.75"/>
<polygon fill="black" stroke="black" points="1517.09,-205.75 1520.59,-215.75 1524.09,-205.75 1517.09,-205.75"/>
</g>
<!-- NewRequestComponent  -->
<g id="node25" class="node">
<title>NewRequestComponent </title>
<polygon fill="#fb8072" stroke="black" points="1473.36,-252 1316.64,-252 1316.64,-216 1473.36,-216 1473.36,-252"/>
<text text-anchor="middle" x="1395" y="-229.8" font-family="Times,serif" font-size="14.00">NewRequestComponent </text>
</g>
<!-- ComponentsModule&#45;&gt;NewRequestComponent  -->
<g id="edge24" class="edge">
<title>ComponentsModule&#45;&gt;NewRequestComponent </title>
<path fill="none" stroke="black" stroke-dasharray="5,2" d="M1346.99,-187.11C1346.99,-187.11 1346.99,-205.99 1346.99,-205.99"/>
<polygon fill="black" stroke="black" points="1343.49,-205.99 1346.99,-215.99 1350.49,-205.99 1343.49,-205.99"/>
</g>
<!-- NewTaskComponent  -->
<g id="node26" class="node">
<title>NewTaskComponent </title>
<polygon fill="#fb8072" stroke="black" points="1299.47,-252 1160.53,-252 1160.53,-216 1299.47,-216 1299.47,-252"/>
<text text-anchor="middle" x="1230" y="-229.8" font-family="Times,serif" font-size="14.00">NewTaskComponent </text>
</g>
<!-- ComponentsModule&#45;&gt;NewTaskComponent  -->
<g id="edge25" class="edge">
<title>ComponentsModule&#45;&gt;NewTaskComponent </title>
<path fill="none" stroke="black" stroke-dasharray="5,2" d="M1273.04,-187.11C1273.04,-187.11 1273.04,-205.99 1273.04,-205.99"/>
<polygon fill="black" stroke="black" points="1269.54,-205.99 1273.04,-215.99 1276.54,-205.99 1269.54,-205.99"/>
</g>
<!-- NotFoundComponent  -->
<g id="node27" class="node">
<title>NotFoundComponent </title>
<polygon fill="#fb8072" stroke="black" points="1142.61,-252 1001.39,-252 1001.39,-216 1142.61,-216 1142.61,-252"/>
<text text-anchor="middle" x="1072" y="-229.8" font-family="Times,serif" font-size="14.00">NotFoundComponent </text>
</g>
<!-- ComponentsModule&#45;&gt;NotFoundComponent  -->
<g id="edge26" class="edge">
<title>ComponentsModule&#45;&gt;NotFoundComponent </title>
<path fill="none" stroke="black" stroke-dasharray="5,2" d="M1246.8,-185C1189.56,-185 1115.38,-185 1115.38,-185 1115.38,-185 1115.38,-205.75 1115.38,-205.75"/>
<polygon fill="black" stroke="black" points="1111.88,-205.75 1115.38,-215.75 1118.88,-205.75 1111.88,-205.75"/>
</g>
<!-- PlacesComponent  -->
<g id="node28" class="node">
<title>PlacesComponent </title>
<polygon fill="#fb8072" stroke="black" points="983.09,-252 862.91,-252 862.91,-216 983.09,-216 983.09,-252"/>
<text text-anchor="middle" x="923" y="-229.8" font-family="Times,serif" font-size="14.00">PlacesComponent </text>
</g>
<!-- ComponentsModule&#45;&gt;PlacesComponent  -->
<g id="edge27" class="edge">
<title>ComponentsModule&#45;&gt;PlacesComponent </title>
<path fill="none" stroke="black" stroke-dasharray="5,2" d="M1246.46,-183C1146.62,-183 967.88,-183 967.88,-183 967.88,-183 967.88,-205.88 967.88,-205.88"/>
<polygon fill="black" stroke="black" points="964.38,-205.88 967.88,-215.88 971.38,-205.88 964.38,-205.88"/>
</g>
<!-- PlacesContainerComponent  -->
<g id="node29" class="node">
<title>PlacesContainerComponent </title>
<polygon fill="#fb8072" stroke="black" points="844.8,-252 669.2,-252 669.2,-216 844.8,-216 844.8,-252"/>
<text text-anchor="middle" x="757" y="-229.8" font-family="Times,serif" font-size="14.00">PlacesContainerComponent </text>
</g>
<!-- ComponentsModule&#45;&gt;PlacesContainerComponent  -->
<g id="edge28" class="edge">
<title>ComponentsModule&#45;&gt;PlacesContainerComponent </title>
<path fill="none" stroke="black" stroke-dasharray="5,2" d="M1246.81,-180C1109.56,-180 803.38,-180 803.38,-180 803.38,-180 803.38,-205.72 803.38,-205.72"/>
<polygon fill="black" stroke="black" points="799.88,-205.72 803.38,-215.72 806.88,-205.72 799.88,-205.72"/>
</g>
<!-- TaskComponent  -->
<g id="node30" class="node">
<title>TaskComponent </title>
<polygon fill="#fb8072" stroke="black" points="651.04,-252 538.96,-252 538.96,-216 651.04,-216 651.04,-252"/>
<text text-anchor="middle" x="595" y="-229.8" font-family="Times,serif" font-size="14.00">TaskComponent </text>
</g>
<!-- ComponentsModule&#45;&gt;TaskComponent  -->
<g id="edge29" class="edge">
<title>ComponentsModule&#45;&gt;TaskComponent </title>
<path fill="none" stroke="black" stroke-dasharray="5,2" d="M1246.75,-178C1074.66,-178 621.68,-178 621.68,-178 621.68,-178 621.68,-205.97 621.68,-205.97"/>
<polygon fill="black" stroke="black" points="618.18,-205.97 621.68,-215.97 625.18,-205.97 618.18,-205.97"/>
</g>
<!-- TasksComponent  -->
<g id="node31" class="node">
<title>TasksComponent </title>
<polygon fill="#fb8072" stroke="black" points="520.99,-252 403.01,-252 403.01,-216 520.99,-216 520.99,-252"/>
<text text-anchor="middle" x="462" y="-229.8" font-family="Times,serif" font-size="14.00">TasksComponent </text>
</g>
<!-- ComponentsModule&#45;&gt;TasksComponent  -->
<g id="edge30" class="edge">
<title>ComponentsModule&#45;&gt;TasksComponent </title>
<path fill="none" stroke="black" stroke-dasharray="5,2" d="M1246.73,-175C1052.75,-175 493.24,-175 493.24,-175 493.24,-175 493.24,-205.98 493.24,-205.98"/>
<polygon fill="black" stroke="black" points="489.74,-205.98 493.24,-215.98 496.74,-205.98 489.74,-205.98"/>
</g>
<!-- TasksContainerComponent  -->
<g id="node32" class="node">
<title>TasksContainerComponent </title>
<polygon fill="#fb8072" stroke="black" points="385.2,-252 212.8,-252 212.8,-216 385.2,-216 385.2,-252"/>
<text text-anchor="middle" x="299" y="-229.8" font-family="Times,serif" font-size="14.00">TasksContainerComponent </text>
</g>
<!-- ComponentsModule&#45;&gt;TasksContainerComponent  -->
<g id="edge31" class="edge">
<title>ComponentsModule&#45;&gt;TasksContainerComponent </title>
<path fill="none" stroke="black" stroke-dasharray="5,2" d="M1246.54,-173C1031.39,-173 359.68,-173 359.68,-173 359.68,-173 359.68,-205.7 359.68,-205.7"/>
<polygon fill="black" stroke="black" points="356.18,-205.7 359.68,-215.7 363.18,-205.7 356.18,-205.7"/>
</g>
<!-- SharedModule -->
<g id="node18" class="node">
<title>SharedModule</title>
<polygon fill="#8dd3c7" stroke="black" points="122.42,-122 119.42,-126 98.42,-126 95.42,-122 23.58,-122 23.58,-86 122.42,-86 122.42,-122"/>
<text text-anchor="middle" x="73" y="-99.8" font-family="Times,serif" font-size="14.00">SharedModule</text>
</g>
<!-- SharedModule&#45;&gt;ComponentsModule -->
<g id="edge17" class="edge">
<title>SharedModule&#45;&gt;ComponentsModule</title>
<path fill="none" stroke="black" d="M73,-122.31C73,-142.15 73,-171 73,-171 73,-171 1236.7,-171 1236.7,-171"/>
<polygon fill="black" stroke="black" points="1236.7,-174.5 1246.7,-171 1236.7,-167.5 1236.7,-174.5"/>
</g>
</g>
</svg>
