<?xml version="1.0" encoding="UTF-8" standalone="no"?>
<!DOCTYPE svg PUBLIC "-//W3C//DTD SVG 1.1//EN"
 "http://www.w3.org/Graphics/SVG/1.1/DTD/svg11.dtd">
<!-- Generated by graphviz version 2.47.0 (20210316.0004)
 -->
<!-- Title: dependencies Pages: 1 -->
<svg width="3832pt" height="290pt"
 viewBox="0.00 0.00 3832.00 290.00" xmlns="http://www.w3.org/2000/svg" xmlns:xlink="http://www.w3.org/1999/xlink">
<g id="graph0" class="graph" transform="scale(1 1) rotate(0) translate(4 286)">
<title>dependencies</title>
<polygon fill="white" stroke="transparent" points="-4,4 -4,-286 3828,-286 3828,4 -4,4"/>
<text text-anchor="start" x="1891.01" y="-42.4" font-family="Times-12" font-weight="bold" font-size="14.00">Legend</text>
<polygon fill="#ffffb3" stroke="transparent" points="1678,-10 1678,-30 1698,-30 1698,-10 1678,-10"/>
<text text-anchor="start" x="1701.63" y="-15.4" font-family="Times-12" font-size="14.00"> &#160;Declarations</text>
<polygon fill="#8dd3c7" stroke="transparent" points="1791,-10 1791,-30 1811,-30 1811,-10 1791,-10"/>
<text text-anchor="start" x="1814.73" y="-15.4" font-family="Times-12" font-size="14.00"> &#160;Module</text>
<polygon fill="#80b1d3" stroke="transparent" points="1877,-10 1877,-30 1897,-30 1897,-10 1877,-10"/>
<text text-anchor="start" x="1900.78" y="-15.4" font-family="Times-12" font-size="14.00"> &#160;Bootstrap</text>
<polygon fill="#fdb462" stroke="transparent" points="1974,-10 1974,-30 1994,-30 1994,-10 1974,-10"/>
<text text-anchor="start" x="1997.67" y="-15.4" font-family="Times-12" font-size="14.00"> &#160;Providers</text>
<polygon fill="#fb8072" stroke="transparent" points="2070,-10 2070,-30 2090,-30 2090,-10 2070,-10"/>
<text text-anchor="start" x="2093.73" y="-15.4" font-family="Times-12" font-size="14.00"> &#160;Exports</text>
<g id="clust1" class="cluster">
<title>cluster_AppModule</title>
<polygon fill="none" stroke="black" stroke-dasharray="1,5" points="8,-70 8,-274 492,-274 492,-70 8,-70"/>
</g>
<g id="clust2" class="cluster">
<title>cluster_AppModule_declarations</title>
<polygon fill="none" stroke="black" points="240,-78 240,-130 362,-130 362,-78 240,-78"/>
</g>
<g id="clust4" class="cluster">
<title>cluster_AppModule_imports</title>
<polygon fill="none" stroke="black" points="370,-78 370,-130 484,-130 484,-78 370,-78"/>
</g>
<g id="clust6" class="cluster">
<title>cluster_AppModule_bootstrap</title>
<polygon fill="none" stroke="black" points="239,-214 239,-266 363,-266 363,-214 239,-214"/>
</g>
<g id="clust7" class="cluster">
<title>cluster_AppModule_providers</title>
<polygon fill="none" stroke="black" points="16,-78 16,-130 232,-130 232,-78 16,-78"/>
</g>
<g id="clust8" class="cluster">
<title>cluster_ComponentsModule</title>
<polygon fill="none" stroke="black" stroke-dasharray="1,5" points="1302,-70 1302,-274 3816,-274 3816,-70 1302,-70"/>
</g>
<g id="clust9" class="cluster">
<title>cluster_ComponentsModule_declarations</title>
<polygon fill="none" stroke="black" points="1310,-78 1310,-130 3808,-130 3808,-78 1310,-78"/>
</g>
<g id="clust27" class="cluster">
<title>cluster_ComponentsModule_exports</title>
<polygon fill="none" stroke="black" points="1385,-214 1385,-266 3624,-266 3624,-214 1385,-214"/>
</g>
<g id="clust30" class="cluster">
<title>cluster_SharedModule</title>
<polygon fill="none" stroke="black" stroke-dasharray="1,5" points="500,-138 500,-206 1294,-206 1294,-138 500,-138"/>
</g>
<g id="clust31" class="cluster">
<title>cluster_SharedModule_declarations</title>
<polygon fill="none" stroke="black" points="906,-146 906,-198 1286,-198 1286,-146 906,-146"/>
</g>
<g id="clust36" class="cluster">
<title>cluster_SharedModule_exports</title>
<polygon fill="none" stroke="black" points="508,-146 508,-198 898,-198 898,-146 508,-146"/>
</g>
<!-- AppComponent -->
<g id="node1" class="node">
<title>AppComponent</title>
<polygon fill="#ffffb3" stroke="black" points="353.94,-122 248.06,-122 248.06,-86 353.94,-86 353.94,-122"/>
<text text-anchor="middle" x="301" y="-99.8" font-family="Times,serif" font-size="14.00">AppComponent</text>
</g>
<!-- AppModule -->
<g id="node2" class="node">
<title>AppModule</title>
<polygon fill="#8dd3c7" stroke="black" points="342.66,-190 339.66,-194 318.66,-194 315.66,-190 259.34,-190 259.34,-154 342.66,-154 342.66,-190"/>
<text text-anchor="middle" x="301" y="-167.8" font-family="Times,serif" font-size="14.00">AppModule</text>
</g>
<!-- AppComponent&#45;&gt;AppModule -->
<g id="edge1" class="edge">
<title>AppComponent&#45;&gt;AppModule</title>
<path fill="none" stroke="black" d="M301,-122.22C301,-122.22 301,-143.73 301,-143.73"/>
<polygon fill="black" stroke="black" points="297.5,-143.73 301,-153.73 304.5,-143.73 297.5,-143.73"/>
</g>
<!-- AppComponent  -->
<g id="node4" class="node">
<title>AppComponent </title>
<polygon fill="#80b1d3" stroke="black" points="355.44,-258 246.56,-258 246.56,-222 355.44,-222 355.44,-258"/>
<text text-anchor="middle" x="301" y="-235.8" font-family="Times,serif" font-size="14.00">AppComponent </text>
</g>
<!-- AppModule&#45;&gt;AppComponent  -->
<g id="edge3" class="edge">
<title>AppModule&#45;&gt;AppComponent </title>
<path fill="none" stroke="black" stroke-dasharray="1,5" d="M301,-190.22C301,-190.22 301,-211.73 301,-211.73"/>
<polygon fill="black" stroke="black" points="297.5,-211.73 301,-221.73 304.5,-211.73 297.5,-211.73"/>
</g>
<!-- SharedModule -->
<g id="node3" class="node">
<title>SharedModule</title>
<polygon fill="#8dd3c7" stroke="black" points="476.42,-122 473.42,-126 452.42,-126 449.42,-122 377.58,-122 377.58,-86 476.42,-86 476.42,-122"/>
<text text-anchor="middle" x="427" y="-99.8" font-family="Times,serif" font-size="14.00">SharedModule</text>
</g>
<!-- SharedModule&#45;&gt;AppModule -->
<g id="edge2" class="edge">
<title>SharedModule&#45;&gt;AppModule</title>
<path fill="none" stroke="black" d="M410.6,-122.29C410.6,-144.21 410.6,-178 410.6,-178 410.6,-178 352.75,-178 352.75,-178"/>
<polygon fill="black" stroke="black" points="352.75,-174.5 342.75,-178 352.75,-181.5 352.75,-174.5"/>
</g>
<!-- ComponentsModule -->
<g id="node22" class="node">
<title>ComponentsModule</title>
<polygon fill="#8dd3c7" stroke="black" points="2549.33,-190 2546.33,-194 2525.33,-194 2522.33,-190 2418.67,-190 2418.67,-154 2549.33,-154 2549.33,-190"/>
<text text-anchor="middle" x="2484" y="-167.8" font-family="Times,serif" font-size="14.00">ComponentsModule</text>
</g>
<!-- SharedModule&#45;&gt;ComponentsModule -->
<g id="edge21" class="edge">
<title>SharedModule&#45;&gt;ComponentsModule</title>
<path fill="none" stroke="black" d="M476.34,-92C660.64,-92 1298.22,-92 1298.22,-92 1298.22,-92 1298.22,-174 1298.22,-174 1298.22,-174 2408.56,-174 2408.56,-174"/>
<polygon fill="black" stroke="black" points="2408.56,-177.5 2418.56,-174 2408.56,-170.5 2408.56,-177.5"/>
</g>
<!-- AuthDirective  -->
<g id="node40" class="node">
<title>AuthDirective </title>
<polygon fill="#fb8072" stroke="black" points="889.58,-190 790.42,-190 790.42,-154 889.58,-154 889.58,-190"/>
<text text-anchor="middle" x="840" y="-167.8" font-family="Times,serif" font-size="14.00">AuthDirective </text>
</g>
<!-- SharedModule&#45;&gt;AuthDirective  -->
<g id="edge39" class="edge">
<title>SharedModule&#45;&gt;AuthDirective </title>
<path fill="none" stroke="black" stroke-dasharray="5,2" d="M476.41,-112C586.03,-112 840,-112 840,-112 840,-112 840,-144 840,-144"/>
<polygon fill="black" stroke="black" points="836.5,-144 840,-154 843.5,-144 836.5,-144"/>
</g>
<!-- SafeLinkDirective  -->
<g id="node41" class="node">
<title>SafeLinkDirective </title>
<polygon fill="#fb8072" stroke="black" points="772.4,-190 649.6,-190 649.6,-154 772.4,-154 772.4,-190"/>
<text text-anchor="middle" x="711" y="-167.8" font-family="Times,serif" font-size="14.00">SafeLinkDirective </text>
</g>
<!-- SharedModule&#45;&gt;SafeLinkDirective  -->
<g id="edge40" class="edge">
<title>SharedModule&#45;&gt;SafeLinkDirective </title>
<path fill="none" stroke="black" stroke-dasharray="5,2" d="M476.47,-117C557.84,-117 711,-117 711,-117 711,-117 711,-143.99 711,-143.99"/>
<polygon fill="black" stroke="black" points="707.5,-143.99 711,-153.99 714.5,-143.99 707.5,-143.99"/>
</g>
<!-- TemperaturePipe  -->
<g id="node42" class="node">
<title>TemperaturePipe </title>
<polygon fill="#fb8072" stroke="black" points="631.9,-190 516.1,-190 516.1,-154 631.9,-154 631.9,-190"/>
<text text-anchor="middle" x="574" y="-167.8" font-family="Times,serif" font-size="14.00">TemperaturePipe </text>
</g>
<!-- SharedModule&#45;&gt;TemperaturePipe  -->
<g id="edge41" class="edge">
<title>SharedModule&#45;&gt;TemperaturePipe </title>
<path fill="none" stroke="black" stroke-dasharray="5,2" d="M443.4,-122.27C443.4,-140.56 443.4,-166 443.4,-166 443.4,-166 505.96,-166 505.96,-166"/>
<polygon fill="black" stroke="black" points="505.96,-169.5 515.96,-166 505.96,-162.5 505.96,-169.5"/>
</g>
<!-- RemoteA16Interceptor -->
<g id="node5" class="node">
<title>RemoteA16Interceptor</title>
<ellipse fill="#fdb462" stroke="black" cx="124" cy="-104" rx="100.12" ry="18"/>
<text text-anchor="middle" x="124" y="-99.8" font-family="Times,serif" font-size="14.00">RemoteA16Interceptor</text>
</g>
<!-- RemoteA16Interceptor&#45;&gt;AppModule -->
<g id="edge4" class="edge">
<title>RemoteA16Interceptor&#45;&gt;AppModule</title>
<path fill="none" stroke="black" d="M124,-122.22C124,-142.37 124,-172 124,-172 124,-172 249.05,-172 249.05,-172"/>
<polygon fill="black" stroke="black" points="249.05,-175.5 259.05,-172 249.05,-168.5 249.05,-175.5"/>
</g>
<!-- AvailablePlacesComponent -->
<g id="node6" class="node">
<title>AvailablePlacesComponent</title>
<polygon fill="#ffffb3" stroke="black" points="3799.52,-122 3628.48,-122 3628.48,-86 3799.52,-86 3799.52,-122"/>
<text text-anchor="middle" x="3714" y="-99.8" font-family="Times,serif" font-size="14.00">AvailablePlacesComponent</text>
</g>
<!-- AvailablePlacesComponent&#45;&gt;ComponentsModule -->
<g id="edge5" class="edge">
<title>AvailablePlacesComponent&#45;&gt;ComponentsModule</title>
<path fill="none" stroke="black" d="M3714,-122.03C3714,-142.77 3714,-174 3714,-174 3714,-174 2559.26,-174 2559.26,-174"/>
<polygon fill="black" stroke="black" points="2559.26,-170.5 2549.26,-174 2559.26,-177.5 2559.26,-170.5"/>
</g>
<!-- CardComponent -->
<g id="node7" class="node">
<title>CardComponent</title>
<polygon fill="#ffffb3" stroke="black" points="3610.05,-122 3501.95,-122 3501.95,-86 3610.05,-86 3610.05,-122"/>
<text text-anchor="middle" x="3556" y="-99.8" font-family="Times,serif" font-size="14.00">CardComponent</text>
</g>
<!-- CardComponent&#45;&gt;ComponentsModule -->
<g id="edge6" class="edge">
<title>CardComponent&#45;&gt;ComponentsModule</title>
<path fill="none" stroke="black" d="M3556,-122.31C3556,-142.15 3556,-171 3556,-171 3556,-171 2559.44,-171 2559.44,-171"/>
<polygon fill="black" stroke="black" points="2559.44,-167.5 2549.44,-171 2559.44,-174.5 2559.44,-167.5"/>
</g>
<!-- ErrorModalComponent -->
<g id="node8" class="node">
<title>ErrorModalComponent</title>
<polygon fill="#ffffb3" stroke="black" points="3483.92,-122 3336.08,-122 3336.08,-86 3483.92,-86 3483.92,-122"/>
<text text-anchor="middle" x="3410" y="-99.8" font-family="Times,serif" font-size="14.00">ErrorModalComponent</text>
</g>
<!-- ErrorModalComponent&#45;&gt;ComponentsModule -->
<g id="edge7" class="edge">
<title>ErrorModalComponent&#45;&gt;ComponentsModule</title>
<path fill="none" stroke="black" d="M3379.16,-122.11C3379.16,-141.34 3379.16,-169 3379.16,-169 3379.16,-169 2559.46,-169 2559.46,-169"/>
<polygon fill="black" stroke="black" points="2559.46,-165.5 2549.46,-169 2559.46,-172.5 2559.46,-165.5"/>
</g>
<!-- FavoritePlacesComponent -->
<g id="node9" class="node">
<title>FavoritePlacesComponent</title>
<polygon fill="#ffffb3" stroke="black" points="3317.75,-122 3154.25,-122 3154.25,-86 3317.75,-86 3317.75,-122"/>
<text text-anchor="middle" x="3236" y="-99.8" font-family="Times,serif" font-size="14.00">FavoritePlacesComponent</text>
</g>
<!-- FavoritePlacesComponent&#45;&gt;ComponentsModule -->
<g id="edge8" class="edge">
<title>FavoritePlacesComponent&#45;&gt;ComponentsModule</title>
<path fill="none" stroke="black" d="M3223.29,-122.27C3223.29,-140.56 3223.29,-166 3223.29,-166 3223.29,-166 2559.28,-166 2559.28,-166"/>
<polygon fill="black" stroke="black" points="2559.28,-162.5 2549.28,-166 2559.28,-169.5 2559.28,-162.5"/>
</g>
<!-- HeaderComponent -->
<g id="node10" class="node">
<title>HeaderComponent</title>
<polygon fill="#ffffb3" stroke="black" points="3135.74,-122 3014.26,-122 3014.26,-86 3135.74,-86 3135.74,-122"/>
<text text-anchor="middle" x="3075" y="-99.8" font-family="Times,serif" font-size="14.00">HeaderComponent</text>
</g>
<!-- HeaderComponent&#45;&gt;ComponentsModule -->
<g id="edge9" class="edge">
<title>HeaderComponent&#45;&gt;ComponentsModule</title>
<path fill="none" stroke="black" d="M3068.88,-122C3068.88,-139.68 3068.88,-164 3068.88,-164 3068.88,-164 2559.39,-164 2559.39,-164"/>
<polygon fill="black" stroke="black" points="2559.39,-160.5 2549.39,-164 2559.39,-167.5 2559.39,-160.5"/>
</g>
<!-- LessonComponent -->
<g id="node11" class="node">
<title>LessonComponent</title>
<polygon fill="#ffffb3" stroke="black" points="2996.49,-122 2875.51,-122 2875.51,-86 2996.49,-86 2996.49,-122"/>
<text text-anchor="middle" x="2936" y="-99.8" font-family="Times,serif" font-size="14.00">LessonComponent</text>
</g>
<!-- LessonComponent&#45;&gt;ComponentsModule -->
<g id="edge10" class="edge">
<title>LessonComponent&#45;&gt;ComponentsModule</title>
<path fill="none" stroke="black" d="M2907.06,-122.03C2907.06,-139.06 2907.06,-162 2907.06,-162 2907.06,-162 2559.18,-162 2559.18,-162"/>
<polygon fill="black" stroke="black" points="2559.18,-158.5 2549.18,-162 2559.18,-165.5 2559.18,-158.5"/>
</g>
<!-- ModalComponent -->
<g id="node12" class="node">
<title>ModalComponent</title>
<polygon fill="#ffffb3" stroke="black" points="2857.88,-122 2740.12,-122 2740.12,-86 2857.88,-86 2857.88,-122"/>
<text text-anchor="middle" x="2799" y="-99.8" font-family="Times,serif" font-size="14.00">ModalComponent</text>
</g>
<!-- ModalComponent&#45;&gt;ComponentsModule -->
<g id="edge11" class="edge">
<title>ModalComponent&#45;&gt;ComponentsModule</title>
<path fill="none" stroke="black" d="M2767.65,-122.01C2767.65,-138.05 2767.65,-159 2767.65,-159 2767.65,-159 2559.43,-159 2559.43,-159"/>
<polygon fill="black" stroke="black" points="2559.43,-155.5 2549.43,-159 2559.43,-162.5 2559.43,-155.5"/>
</g>
<!-- NewRequestComponent -->
<g id="node13" class="node">
<title>NewRequestComponent</title>
<polygon fill="#ffffb3" stroke="black" points="2722.36,-122 2569.64,-122 2569.64,-86 2722.36,-86 2722.36,-122"/>
<text text-anchor="middle" x="2646" y="-99.8" font-family="Times,serif" font-size="14.00">NewRequestComponent</text>
</g>
<!-- NewRequestComponent&#45;&gt;ComponentsModule -->
<g id="edge12" class="edge">
<title>NewRequestComponent&#45;&gt;ComponentsModule</title>
<path fill="none" stroke="black" d="M2611.38,-122.24C2611.38,-137.57 2611.38,-157 2611.38,-157 2611.38,-157 2559.18,-157 2559.18,-157"/>
<polygon fill="black" stroke="black" points="2559.18,-153.5 2549.18,-157 2559.18,-160.5 2559.18,-153.5"/>
</g>
<!-- NewTaskComponent -->
<g id="node14" class="node">
<title>NewTaskComponent</title>
<polygon fill="#ffffb3" stroke="black" points="2551.47,-122 2416.53,-122 2416.53,-86 2551.47,-86 2551.47,-122"/>
<text text-anchor="middle" x="2484" y="-99.8" font-family="Times,serif" font-size="14.00">NewTaskComponent</text>
</g>
<!-- NewTaskComponent&#45;&gt;ComponentsModule -->
<g id="edge13" class="edge">
<title>NewTaskComponent&#45;&gt;ComponentsModule</title>
<path fill="none" stroke="black" d="M2484,-122.22C2484,-122.22 2484,-143.73 2484,-143.73"/>
<polygon fill="black" stroke="black" points="2480.5,-143.73 2484,-153.73 2487.5,-143.73 2480.5,-143.73"/>
</g>
<!-- NotFoundComponent -->
<g id="node15" class="node">
<title>NotFoundComponent</title>
<polygon fill="#ffffb3" stroke="black" points="2398.11,-122 2259.89,-122 2259.89,-86 2398.11,-86 2398.11,-122"/>
<text text-anchor="middle" x="2329" y="-99.8" font-family="Times,serif" font-size="14.00">NotFoundComponent</text>
</g>
<!-- NotFoundComponent&#45;&gt;ComponentsModule -->
<g id="edge14" class="edge">
<title>NotFoundComponent&#45;&gt;ComponentsModule</title>
<path fill="none" stroke="black" d="M2369.41,-122.24C2369.41,-137.57 2369.41,-157 2369.41,-157 2369.41,-157 2408.67,-157 2408.67,-157"/>
<polygon fill="black" stroke="black" points="2408.67,-160.5 2418.67,-157 2408.67,-153.5 2408.67,-160.5"/>
</g>
<!-- PlacesComponent -->
<g id="node16" class="node">
<title>PlacesComponent</title>
<polygon fill="#ffffb3" stroke="black" points="2241.59,-122 2124.41,-122 2124.41,-86 2241.59,-86 2241.59,-122"/>
<text text-anchor="middle" x="2183" y="-99.8" font-family="Times,serif" font-size="14.00">PlacesComponent</text>
</g>
<!-- PlacesComponent&#45;&gt;ComponentsModule -->
<g id="edge15" class="edge">
<title>PlacesComponent&#45;&gt;ComponentsModule</title>
<path fill="none" stroke="black" d="M2211.37,-122.01C2211.37,-138.05 2211.37,-159 2211.37,-159 2211.37,-159 2408.7,-159 2408.7,-159"/>
<polygon fill="black" stroke="black" points="2408.7,-162.5 2418.7,-159 2408.7,-155.5 2408.7,-162.5"/>
</g>
<!-- PlacesContainerComponent -->
<g id="node17" class="node">
<title>PlacesContainerComponent</title>
<polygon fill="#ffffb3" stroke="black" points="2106.3,-122 1933.7,-122 1933.7,-86 2106.3,-86 2106.3,-122"/>
<text text-anchor="middle" x="2020" y="-99.8" font-family="Times,serif" font-size="14.00">PlacesContainerComponent</text>
</g>
<!-- PlacesContainerComponent&#45;&gt;ComponentsModule -->
<g id="edge16" class="edge">
<title>PlacesContainerComponent&#45;&gt;ComponentsModule</title>
<path fill="none" stroke="black" d="M2074.43,-122.03C2074.43,-139.06 2074.43,-162 2074.43,-162 2074.43,-162 2408.65,-162 2408.65,-162"/>
<polygon fill="black" stroke="black" points="2408.65,-165.5 2418.65,-162 2408.65,-158.5 2408.65,-165.5"/>
</g>
<!-- SimpleFormComponent -->
<g id="node18" class="node">
<title>SimpleFormComponent</title>
<polygon fill="#ffffb3" stroke="black" points="1915.84,-122 1764.16,-122 1764.16,-86 1915.84,-86 1915.84,-122"/>
<text text-anchor="middle" x="1840" y="-99.8" font-family="Times,serif" font-size="14.00">SimpleFormComponent</text>
</g>
<!-- SimpleFormComponent&#45;&gt;ComponentsModule -->
<g id="edge17" class="edge">
<title>SimpleFormComponent&#45;&gt;ComponentsModule</title>
<path fill="none" stroke="black" d="M1882.38,-122C1882.38,-139.68 1882.38,-164 1882.38,-164 1882.38,-164 2408.76,-164 2408.76,-164"/>
<polygon fill="black" stroke="black" points="2408.76,-167.5 2418.76,-164 2408.76,-160.5 2408.76,-167.5"/>
</g>
<!-- TaskComponent -->
<g id="node19" class="node">
<title>TaskComponent</title>
<polygon fill="#ffffb3" stroke="black" points="1746.05,-122 1637.95,-122 1637.95,-86 1746.05,-86 1746.05,-122"/>
<text text-anchor="middle" x="1692" y="-99.8" font-family="Times,serif" font-size="14.00">TaskComponent</text>
</g>
<!-- TaskComponent&#45;&gt;ComponentsModule -->
<g id="edge18" class="edge">
<title>TaskComponent&#45;&gt;ComponentsModule</title>
<path fill="none" stroke="black" d="M1732.62,-122.27C1732.62,-140.56 1732.62,-166 1732.62,-166 1732.62,-166 2408.63,-166 2408.63,-166"/>
<polygon fill="black" stroke="black" points="2408.63,-169.5 2418.63,-166 2408.63,-162.5 2408.63,-169.5"/>
</g>
<!-- TasksComponent -->
<g id="node20" class="node">
<title>TasksComponent</title>
<polygon fill="#ffffb3" stroke="black" points="1619.99,-122 1506.01,-122 1506.01,-86 1619.99,-86 1619.99,-122"/>
<text text-anchor="middle" x="1563" y="-99.8" font-family="Times,serif" font-size="14.00">TasksComponent</text>
</g>
<!-- TasksComponent&#45;&gt;ComponentsModule -->
<g id="edge19" class="edge">
<title>TasksComponent&#45;&gt;ComponentsModule</title>
<path fill="none" stroke="black" d="M1601.62,-122.11C1601.62,-141.34 1601.62,-169 1601.62,-169 1601.62,-169 2408.76,-169 2408.76,-169"/>
<polygon fill="black" stroke="black" points="2408.76,-172.5 2418.76,-169 2408.76,-165.5 2408.76,-172.5"/>
</g>
<!-- TasksContainerComponent -->
<g id="node21" class="node">
<title>TasksContainerComponent</title>
<polygon fill="#ffffb3" stroke="black" points="1487.7,-122 1318.3,-122 1318.3,-86 1487.7,-86 1487.7,-122"/>
<text text-anchor="middle" x="1403" y="-99.8" font-family="Times,serif" font-size="14.00">TasksContainerComponent</text>
</g>
<!-- TasksContainerComponent&#45;&gt;ComponentsModule -->
<g id="edge20" class="edge">
<title>TasksContainerComponent&#45;&gt;ComponentsModule</title>
<path fill="none" stroke="black" d="M1440.12,-122.31C1440.12,-142.15 1440.12,-171 1440.12,-171 1440.12,-171 2408.7,-171 2408.7,-171"/>
<polygon fill="black" stroke="black" points="2408.7,-174.5 2418.7,-171 2408.7,-167.5 2408.7,-174.5"/>
</g>
<!-- AvailablePlacesComponent  -->
<g id="node23" class="node">
<title>AvailablePlacesComponent </title>
<polygon fill="#fb8072" stroke="black" points="3615.52,-258 3440.48,-258 3440.48,-222 3615.52,-222 3615.52,-258"/>
<text text-anchor="middle" x="3528" y="-235.8" font-family="Times,serif" font-size="14.00">AvailablePlacesComponent </text>
</g>
<!-- ComponentsModule&#45;&gt;AvailablePlacesComponent  -->
<g id="edge22" class="edge">
<title>ComponentsModule&#45;&gt;AvailablePlacesComponent </title>
<path fill="none" stroke="black" stroke-dasharray="5,2" d="M2549.31,-176C2768.19,-176 3462.1,-176 3462.1,-176 3462.1,-176 3462.1,-211.83 3462.1,-211.83"/>
<polygon fill="black" stroke="black" points="3458.6,-211.83 3462.1,-221.83 3465.6,-211.83 3458.6,-211.83"/>
</g>
<!-- CardComponent  -->
<g id="node24" class="node">
<title>CardComponent </title>
<polygon fill="#fb8072" stroke="black" points="3422.04,-258 3309.96,-258 3309.96,-222 3422.04,-222 3422.04,-258"/>
<text text-anchor="middle" x="3366" y="-235.8" font-family="Times,serif" font-size="14.00">CardComponent </text>
</g>
<!-- ComponentsModule&#45;&gt;CardComponent  -->
<g id="edge23" class="edge">
<title>ComponentsModule&#45;&gt;CardComponent </title>
<path fill="none" stroke="black" stroke-dasharray="5,2" d="M2549.47,-178C2745.44,-178 3313.93,-178 3313.93,-178 3313.93,-178 3313.93,-211.73 3313.93,-211.73"/>
<polygon fill="black" stroke="black" points="3310.43,-211.73 3313.93,-221.73 3317.43,-211.73 3310.43,-211.73"/>
</g>
<!-- ErrorModalComponent  -->
<g id="node25" class="node">
<title>ErrorModalComponent </title>
<polygon fill="#fb8072" stroke="black" points="3292.42,-258 3141.58,-258 3141.58,-222 3292.42,-222 3292.42,-258"/>
<text text-anchor="middle" x="3217" y="-235.8" font-family="Times,serif" font-size="14.00">ErrorModalComponent </text>
</g>
<!-- ComponentsModule&#45;&gt;ErrorModalComponent  -->
<g id="edge24" class="edge">
<title>ComponentsModule&#45;&gt;ErrorModalComponent </title>
<path fill="none" stroke="black" stroke-dasharray="5,2" d="M2549.16,-181C2716.42,-181 3147.83,-181 3147.83,-181 3147.83,-181 3147.83,-211.98 3147.83,-211.98"/>
<polygon fill="black" stroke="black" points="3144.33,-211.98 3147.83,-221.98 3151.33,-211.98 3144.33,-211.98"/>
</g>
<!-- FavoritePlacesComponent  -->
<g id="node26" class="node">
<title>FavoritePlacesComponent </title>
<polygon fill="#fb8072" stroke="black" points="3123.75,-258 2956.25,-258 2956.25,-222 3123.75,-222 3123.75,-258"/>
<text text-anchor="middle" x="3040" y="-235.8" font-family="Times,serif" font-size="14.00">FavoritePlacesComponent </text>
</g>
<!-- ComponentsModule&#45;&gt;FavoritePlacesComponent  -->
<g id="edge25" class="edge">
<title>ComponentsModule&#45;&gt;FavoritePlacesComponent </title>
<path fill="none" stroke="black" stroke-dasharray="5,2" d="M2549.39,-183C2683.34,-183 2976.44,-183 2976.44,-183 2976.44,-183 2976.44,-211.96 2976.44,-211.96"/>
<polygon fill="black" stroke="black" points="2972.94,-211.96 2976.44,-221.96 2979.94,-211.96 2972.94,-211.96"/>
</g>
<!-- HeaderComponent  -->
<g id="node27" class="node">
<title>HeaderComponent </title>
<polygon fill="#fb8072" stroke="black" points="2938.74,-258 2813.26,-258 2813.26,-222 2938.74,-222 2938.74,-258"/>
<text text-anchor="middle" x="2876" y="-235.8" font-family="Times,serif" font-size="14.00">HeaderComponent </text>
</g>
<!-- ComponentsModule&#45;&gt;HeaderComponent  -->
<g id="edge26" class="edge">
<title>ComponentsModule&#45;&gt;HeaderComponent </title>
<path fill="none" stroke="black" stroke-dasharray="5,2" d="M2549.32,-186C2651.02,-186 2835.66,-186 2835.66,-186 2835.66,-186 2835.66,-211.72 2835.66,-211.72"/>
<polygon fill="black" stroke="black" points="2832.16,-211.72 2835.66,-221.72 2839.16,-211.72 2832.16,-211.72"/>
</g>
<!-- LessonComponent  -->
<g id="node28" class="node">
<title>LessonComponent </title>
<polygon fill="#fb8072" stroke="black" points="2795.49,-258 2670.51,-258 2670.51,-222 2795.49,-222 2795.49,-258"/>
<text text-anchor="middle" x="2733" y="-235.8" font-family="Times,serif" font-size="14.00">LessonComponent </text>
</g>
<!-- ComponentsModule&#45;&gt;LessonComponent  -->
<g id="edge27" class="edge">
<title>ComponentsModule&#45;&gt;LessonComponent </title>
<path fill="none" stroke="black" stroke-dasharray="5,2" d="M2549.23,-188C2611.72,-188 2696.59,-188 2696.59,-188 2696.59,-188 2696.59,-211.81 2696.59,-211.81"/>
<polygon fill="black" stroke="black" points="2693.09,-211.81 2696.59,-221.81 2700.09,-211.81 2693.09,-211.81"/>
</g>
<!-- NewRequestComponent  -->
<g id="node29" class="node">
<title>NewRequestComponent </title>
<polygon fill="#fb8072" stroke="black" points="2653.36,-258 2496.64,-258 2496.64,-222 2653.36,-222 2653.36,-258"/>
<text text-anchor="middle" x="2575" y="-235.8" font-family="Times,serif" font-size="14.00">NewRequestComponent </text>
</g>
<!-- ComponentsModule&#45;&gt;NewRequestComponent  -->
<g id="edge28" class="edge">
<title>ComponentsModule&#45;&gt;NewRequestComponent </title>
<path fill="none" stroke="black" stroke-dasharray="5,2" d="M2522.99,-190.22C2522.99,-190.22 2522.99,-211.73 2522.99,-211.73"/>
<polygon fill="black" stroke="black" points="2519.49,-211.73 2522.99,-221.73 2526.49,-211.73 2519.49,-211.73"/>
</g>
<!-- NewTaskComponent  -->
<g id="node30" class="node">
<title>NewTaskComponent </title>
<polygon fill="#fb8072" stroke="black" points="2479.47,-258 2340.53,-258 2340.53,-222 2479.47,-222 2479.47,-258"/>
<text text-anchor="middle" x="2410" y="-235.8" font-family="Times,serif" font-size="14.00">NewTaskComponent </text>
</g>
<!-- ComponentsModule&#45;&gt;NewTaskComponent  -->
<g id="edge29" class="edge">
<title>ComponentsModule&#45;&gt;NewTaskComponent </title>
<path fill="none" stroke="black" stroke-dasharray="5,2" d="M2449.04,-190.22C2449.04,-190.22 2449.04,-211.73 2449.04,-211.73"/>
<polygon fill="black" stroke="black" points="2445.54,-211.73 2449.04,-221.73 2452.54,-211.73 2445.54,-211.73"/>
</g>
<!-- NotFoundComponent  -->
<g id="node31" class="node">
<title>NotFoundComponent </title>
<polygon fill="#fb8072" stroke="black" points="2322.61,-258 2181.39,-258 2181.39,-222 2322.61,-222 2322.61,-258"/>
<text text-anchor="middle" x="2252" y="-235.8" font-family="Times,serif" font-size="14.00">NotFoundComponent </text>
</g>
<!-- ComponentsModule&#45;&gt;NotFoundComponent  -->
<g id="edge30" class="edge">
<title>ComponentsModule&#45;&gt;NotFoundComponent </title>
<path fill="none" stroke="black" stroke-dasharray="5,2" d="M2418.79,-188C2362.9,-188 2291.38,-188 2291.38,-188 2291.38,-188 2291.38,-211.81 2291.38,-211.81"/>
<polygon fill="black" stroke="black" points="2287.88,-211.81 2291.38,-221.81 2294.88,-211.81 2287.88,-211.81"/>
</g>
<!-- PlacesComponent  -->
<g id="node32" class="node">
<title>PlacesComponent </title>
<polygon fill="#fb8072" stroke="black" points="2163.09,-258 2042.91,-258 2042.91,-222 2163.09,-222 2163.09,-258"/>
<text text-anchor="middle" x="2103" y="-235.8" font-family="Times,serif" font-size="14.00">PlacesComponent </text>
</g>
<!-- ComponentsModule&#45;&gt;PlacesComponent  -->
<g id="edge31" class="edge">
<title>ComponentsModule&#45;&gt;PlacesComponent </title>
<path fill="none" stroke="black" stroke-dasharray="5,2" d="M2418.82,-186C2320.06,-186 2143.88,-186 2143.88,-186 2143.88,-186 2143.88,-211.72 2143.88,-211.72"/>
<polygon fill="black" stroke="black" points="2140.38,-211.72 2143.88,-221.72 2147.38,-211.72 2140.38,-211.72"/>
</g>
<!-- PlacesContainerComponent  -->
<g id="node33" class="node">
<title>PlacesContainerComponent </title>
<polygon fill="#fb8072" stroke="black" points="2024.8,-258 1849.2,-258 1849.2,-222 2024.8,-222 2024.8,-258"/>
<text text-anchor="middle" x="1937" y="-235.8" font-family="Times,serif" font-size="14.00">PlacesContainerComponent </text>
</g>
<!-- ComponentsModule&#45;&gt;PlacesContainerComponent  -->
<g id="edge32" class="edge">
<title>ComponentsModule&#45;&gt;PlacesContainerComponent </title>
<path fill="none" stroke="black" stroke-dasharray="5,2" d="M2418.8,-183C2282.39,-183 1979.38,-183 1979.38,-183 1979.38,-183 1979.38,-211.96 1979.38,-211.96"/>
<polygon fill="black" stroke="black" points="1975.88,-211.96 1979.38,-221.96 1982.88,-211.96 1975.88,-211.96"/>
</g>
<!-- TaskComponent  -->
<g id="node34" class="node">
<title>TaskComponent </title>
<polygon fill="#fb8072" stroke="black" points="1831.04,-258 1718.96,-258 1718.96,-222 1831.04,-222 1831.04,-258"/>
<text text-anchor="middle" x="1775" y="-235.8" font-family="Times,serif" font-size="14.00">TaskComponent </text>
</g>
<!-- ComponentsModule&#45;&gt;TaskComponent  -->
<g id="edge33" class="edge">
<title>ComponentsModule&#45;&gt;TaskComponent </title>
<path fill="none" stroke="black" stroke-dasharray="5,2" d="M2418.81,-181C2247.5,-181 1797.68,-181 1797.68,-181 1797.68,-181 1797.68,-211.98 1797.68,-211.98"/>
<polygon fill="black" stroke="black" points="1794.18,-211.98 1797.68,-221.98 1801.18,-211.98 1794.18,-211.98"/>
</g>
<!-- TasksComponent  -->
<g id="node35" class="node">
<title>TasksComponent </title>
<polygon fill="#fb8072" stroke="black" points="1700.99,-258 1583.01,-258 1583.01,-222 1700.99,-222 1700.99,-258"/>
<text text-anchor="middle" x="1642" y="-235.8" font-family="Times,serif" font-size="14.00">TasksComponent </text>
</g>
<!-- ComponentsModule&#45;&gt;TasksComponent  -->
<g id="edge34" class="edge">
<title>ComponentsModule&#45;&gt;TasksComponent </title>
<path fill="none" stroke="black" stroke-dasharray="5,2" d="M2418.7,-178C2225.36,-178 1669.24,-178 1669.24,-178 1669.24,-178 1669.24,-211.73 1669.24,-211.73"/>
<polygon fill="black" stroke="black" points="1665.74,-211.73 1669.24,-221.73 1672.74,-211.73 1665.74,-211.73"/>
</g>
<!-- TasksContainerComponent  -->
<g id="node36" class="node">
<title>TasksContainerComponent </title>
<polygon fill="#fb8072" stroke="black" points="1565.2,-258 1392.8,-258 1392.8,-222 1565.2,-222 1565.2,-258"/>
<text text-anchor="middle" x="1479" y="-235.8" font-family="Times,serif" font-size="14.00">TasksContainerComponent </text>
</g>
<!-- ComponentsModule&#45;&gt;TasksContainerComponent  -->
<g id="edge35" class="edge">
<title>ComponentsModule&#45;&gt;TasksContainerComponent </title>
<path fill="none" stroke="black" stroke-dasharray="5,2" d="M2418.82,-176C2204.56,-176 1535.68,-176 1535.68,-176 1535.68,-176 1535.68,-211.83 1535.68,-211.83"/>
<polygon fill="black" stroke="black" points="1532.18,-211.83 1535.68,-221.83 1539.18,-211.83 1532.18,-211.83"/>
</g>
<!-- AuthDirective -->
<g id="node37" class="node">
<title>AuthDirective</title>
<polygon fill="#ffffb3" stroke="black" points="1278.08,-190 1181.92,-190 1181.92,-154 1278.08,-154 1278.08,-190"/>
<text text-anchor="middle" x="1230" y="-167.8" font-family="Times,serif" font-size="14.00">AuthDirective</text>
</g>
<!-- AuthDirective&#45;&gt;SharedModule -->
<g id="edge36" class="edge">
<title>AuthDirective&#45;&gt;SharedModule</title>
<path fill="none" stroke="black" d="M1230,-153.84C1230,-131.65 1230,-97 1230,-97 1230,-97 486.32,-97 486.32,-97"/>
<polygon fill="black" stroke="black" points="486.32,-93.5 476.32,-97 486.32,-100.5 486.32,-93.5"/>
</g>
<!-- SafeLinkDirective -->
<g id="node38" class="node">
<title>SafeLinkDirective</title>
<polygon fill="#ffffb3" stroke="black" points="1163.9,-190 1044.1,-190 1044.1,-154 1163.9,-154 1163.9,-190"/>
<text text-anchor="middle" x="1104" y="-167.8" font-family="Times,serif" font-size="14.00">SafeLinkDirective</text>
</g>
<!-- SafeLinkDirective&#45;&gt;SharedModule -->
<g id="edge37" class="edge">
<title>SafeLinkDirective&#45;&gt;SharedModule</title>
<path fill="none" stroke="black" d="M1104,-153.97C1104,-133.23 1104,-102 1104,-102 1104,-102 486.23,-102 486.23,-102"/>
<polygon fill="black" stroke="black" points="486.23,-98.5 476.23,-102 486.23,-105.5 486.23,-98.5"/>
</g>
<!-- TemperaturePipe -->
<g id="node39" class="node">
<title>TemperaturePipe</title>
<polygon fill="#ffffb3" stroke="black" points="1026.4,-190 913.6,-190 913.6,-154 1026.4,-154 1026.4,-190"/>
<text text-anchor="middle" x="970" y="-167.8" font-family="Times,serif" font-size="14.00">TemperaturePipe</text>
</g>
<!-- TemperaturePipe&#45;&gt;SharedModule -->
<g id="edge38" class="edge">
<title>TemperaturePipe&#45;&gt;SharedModule</title>
<path fill="none" stroke="black" d="M970,-153.89C970,-134.66 970,-107 970,-107 970,-107 486.63,-107 486.63,-107"/>
<polygon fill="black" stroke="black" points="486.63,-103.5 476.63,-107 486.63,-110.5 486.63,-103.5"/>
</g>
</g>
</svg>
